<svg xmlns="http://www.w3.org/2000/svg" width="77.275" height="68.221" viewBox="0 0 77.275 68.221">
  <defs>
    <style>
      .cls-1 {
        fill: #2264d5;
      }
    </style>
  </defs>
  <g id="Group_17" data-name="Group 17" transform="translate(219 -1452)">
    <g id="Group_16" data-name="Group 16" transform="translate(-219 1452)">
      <path id="Path_43" data-name="Path 43" class="cls-1" d="M406.244,375.614c13.612-1.807,22.382-14.259,22.565-22.684a6.571,6.571,0,0,0-.9-.234,1.443,1.443,0,0,1-1.4-1.625c0-1.669-.051-3.34.012-5.006.043-1.139.452-1.524,1.643-1.563,1.734-.057,3.473-.059,5.205,0,1.134.04,1.517.456,1.563,1.638.056,1.466.032,2.937.011,4.405-.027,1.845-.21,2.021-2.06,2.159-.264.02-.526.048-1,.092-.331,1.216-.667,2.478-1.016,3.735A29.016,29.016,0,0,1,415.186,375.5c-.227.112-.427.276-.975.637h8.872c2.6,0,5.208-.036,7.81.02a2.189,2.189,0,0,0,2.165-1.06,3.788,3.788,0,0,1,3.143-1.854,4.087,4.087,0,0,1,4.23,2.676,4.186,4.186,0,0,1-1.725,4.9c-1.744,1.072-3.934,1-5.054-.646-1.032-1.511-2.271-1.557-3.766-1.552-7.409.025-14.818.012-22.227.017-.394,0-.789.054-1.139.079-.122.157-.258.252-.274.365-.33,2.4-.327,2.4-2.654,2.409-1.2,0-2.4.019-3.6,0-1.753-.034-1.838-.128-2.071-1.936-.026-.194-.072-.386-.106-.568-1.415-.435-22.365-.607-26.132-.222-1.75,2.378-3.429,3.191-5.32,2.578a4.35,4.35,0,0,1-2.977-4.094,4.2,4.2,0,0,1,2.764-3.816c2.135-.706,3.806.052,5.578,2.606h18.193a30.208,30.208,0,0,1-17.538-22.978,2.81,2.81,0,0,0-.585-.269c-2.6-.255-2.606-.252-2.616-2.862,0-1.2-.032-2.4.007-3.6.049-1.453.357-1.785,1.765-1.824,1.6-.045,3.205-.046,4.806,0,1.376.04,1.74.405,1.816,1.828.064,1.2.03,2.4.023,3.6-.014,2.451-.087,2.534-2.443,2.957.723,9.625,9.948,21.243,22.579,22.624a4.509,4.509,0,0,0,.2-.923,1.276,1.276,0,0,1,1.372-1.391c1.8-.053,3.6-.054,5.395-.02C406.228,373.2,406.13,374.454,406.244,375.614Zm-5.641,3.167h2.906v-3.005H400.6Zm31.631-28.686v-2.981H429.4v2.981Zm-60.443-3.011v2.927h2.922v-2.927Zm-4.178,31.82a1.624,1.624,0,0,0,1.53-1.549,1.607,1.607,0,0,0-1.712-1.563,1.5,1.5,0,0,0-1.378,1.645A1.514,1.514,0,0,0,367.613,378.9Zm68.866-3.216a1.742,1.742,0,0,0-1.494,1.573,1.555,1.555,0,0,0,1.367,1.647A1.7,1.7,0,0,0,438.1,377.4,1.842,1.842,0,0,0,436.479,375.687Z" transform="translate(-363.379 -313.31)"/>
      <path id="Path_44" data-name="Path 44" class="cls-1" d="M411.672,318.947h3.6c.394,1.53.5,24.437.119,26.994h-3.6C411.394,344.431,411.278,321.745,411.672,318.947Z" transform="translate(-371.702 -308.891)"/>
      <path id="Path_45" data-name="Path 45" class="cls-1" d="M404.013,318.956h3.839v27h-3.839Z" transform="translate(-370.417 -308.892)"/>
      <path id="Path_46" data-name="Path 46" class="cls-1" d="M414.284,314.581h-10.4c0-2.189-.031-4.289.016-6.388a1.348,1.348,0,0,1,1.432-1.375q3.69-.063,7.381-.011a1.512,1.512,0,0,1,1.562,1.7C414.3,310.428,414.284,312.35,414.284,314.581Z" transform="translate(-370.393 -306.784)"/>
      <path id="Path_47" data-name="Path 47" class="cls-1" d="M413.613,354.245c-.577,1.288-.968,2.266-1.444,3.2-.922,1.81-1.891,3.595-2.991,5.677l-4.484-8.825C407.752,354.179,410.49,354.242,413.613,354.245Z" transform="translate(-370.535 -315.001)"/>
    </g>
  </g>
</svg>
