<svg xmlns="http://www.w3.org/2000/svg" width="67.582" height="67.883" viewBox="0 0 67.582 67.883">
  <defs>
    <style>
      .cls-1 {
        fill: #2264d5;
      }
    </style>
  </defs>
  <g id="Group_18" data-name="Group 18" transform="translate(-2182.025 -214.453)">
    <path id="Path_48" data-name="Path 48" class="cls-1" d="M2289.477,267.135a2.3,2.3,0,0,1-3.051-1.05,2.112,2.112,0,0,1-.015-1.963,3.321,3.321,0,0,1-1.117.2,2.245,2.245,0,0,1-1.988-1.442,1.918,1.918,0,0,1,.53-2.3c.392-.361.749-.76,1.14-1.122.286-.265.306-.447,0-.748-1.771-1.741-3.515-3.509-5.275-5.262a.974.974,0,0,1-.236-1.2.92.92,0,0,1,1.022-.482,1.074,1.074,0,0,1,.64.4c1.732,1.727,3.469,3.45,5.191,5.187a.6.6,0,0,0,.795.171,1.973,1.973,0,0,1,2.078.312,2.179,2.179,0,0,1,.9,2.076,6.617,6.617,0,0,1-.153.659,2.3,2.3,0,0,1,2.532.506,2.25,2.25,0,0,1,.492,2.551,2.352,2.352,0,0,1,3.083,3.049,2.266,2.266,0,0,1,2.165.2,2.166,2.166,0,0,1,.895,2.552.536.536,0,0,0,.156.664c1.051,1.03,2.077,2.084,3.121,3.122a1.076,1.076,0,0,0,1.607-.069,1.088,1.088,0,0,0,.08-1.611c-.918-.928-1.859-1.835-2.762-2.777a.944.944,0,0,1,.376-1.627,1.123,1.123,0,0,1,1.128.412q1.276,1.3,2.573,2.575a1.06,1.06,0,0,0,1.642-.013,1.078,1.078,0,0,0,.041-1.651c-.862-.882-1.739-1.747-2.608-2.622a1.024,1.024,0,0,1-.151-1.505,1,1,0,0,1,1.512.139c.877.866,1.741,1.744,2.619,2.609a1.047,1.047,0,0,0,1.637-.032,1.072,1.072,0,0,0,.028-1.647c-.867-.876-1.746-1.74-2.611-2.618-.518-.526-.559-1.094-.133-1.5s.991-.35,1.506.161c.862.856,1.755,1.682,2.569,2.581a1.182,1.182,0,0,0,1.707-.023,1.073,1.073,0,0,0,0-1.646q-5.971-5.97-11.95-11.933c-.655-.653-.958-.663-1.718-.115a4.227,4.227,0,0,0-1.2,1.423c-.456.819-.89,1.651-1.339,2.474a3.933,3.933,0,0,1-3.689,1.967,3.763,3.763,0,0,1-3.161-2.847,1.98,1.98,0,0,1,.1-1.24c1.295-3.025,2.539-6.073,3.888-9.073a5.228,5.228,0,0,1,4-2.805,6.836,6.836,0,0,1,3.582.344c2.629.829,5.249,1.688,7.893,2.462a4.689,4.689,0,0,1,1.948,1.468c2.534,2.511,5.045,5.045,7.563,7.572.639.641.641,1.1,0,1.742-1.817,1.825-3.633,3.653-5.467,5.461-.313.309-.392.51-.017.819.339.279.62.628.938.933a2.786,2.786,0,0,1,.779,3.027,3.08,3.08,0,0,1-2.384,2.211.669.669,0,0,0-.607.616,3.12,3.12,0,0,1-2.486,2.45.63.63,0,0,0-.55.549,3.167,3.167,0,0,1-2.509,2.5.628.628,0,0,0-.541.557,3.218,3.218,0,0,1-3.994,2.432,2.839,2.839,0,0,1-1.2-.755c-1.013-1.016-2.037-2.022-3.038-3.05-.271-.278-.454-.345-.742-.018-.388.441-.828.836-1.244,1.252a1.974,1.974,0,0,1-2.5.433,2.246,2.246,0,0,1-1.163-2.508c.037-.155.095-.305.155-.494a2.2,2.2,0,0,1-2.67-.555,2.124,2.124,0,0,1-.34-2.506l0-.014Z" transform="translate(-86.576 -22.792)"/>
    <path id="Path_49" data-name="Path 49" class="cls-1" d="M2182.025,526.785q0-7.206,0-14.411a3.091,3.091,0,0,1,3.254-3.262q3.589,0,7.178,0a3.1,3.1,0,0,1,3.252,3.269q0,10.988,0,21.976,0,3.394,0,6.787a3.08,3.08,0,0,1-3.312,3.3c-2.393,0-4.785.007-7.178,0a3.061,3.061,0,0,1-3.2-3.247Q2182.026,533.99,2182.025,526.785Z" transform="translate(0 -262.112)"/>
    <path id="Path_50" data-name="Path 50" class="cls-1" d="M2669.99,526.792q0-7.149,0-14.3a3.124,3.124,0,0,1,3.386-3.354c2.319.007,4.637,0,6.956,0a3.128,3.128,0,0,1,3.343,3.346q-.01,11.455,0,22.91c0,1.931,0,3.862,0,5.793a3.1,3.1,0,0,1-3.331,3.284q-3.534-.008-7.067,0a3.076,3.076,0,0,1-3.284-3.274Q2669.986,534,2669.99,526.792Z" transform="translate(-434.069 -262.138)"/>
    <path id="Path_51" data-name="Path 51" class="cls-1" d="M2521.087,605.632c0,3.312.005,6.624,0,9.936a3.035,3.035,0,0,1-3.134,3.13q-3.643,0-7.286,0a3.026,3.026,0,0,1-3.224-3.21q-.014-9.77,0-19.54a3.045,3.045,0,0,1,3.36-3.347c2.337,0,4.675.04,7.01-.017a3.194,3.194,0,0,1,3.3,3.279c-.064,3.255-.018,6.513-.018,9.77Z" transform="translate(-289.466 -336.365)"/>
    <path id="Path_52" data-name="Path 52" class="cls-1" d="M2358.478,605.8q0,4.885,0,9.771a3.052,3.052,0,0,1-3.276,3.264q-3.561,0-7.121,0a3.043,3.043,0,0,1-3.243-3.243q0-9.8,0-19.593a3.01,3.01,0,0,1,3.218-3.259q3.643-.009,7.286,0a3,3,0,0,1,3.132,3.122C2358.488,599.173,2358.478,602.485,2358.478,605.8Z" transform="translate(-144.828 -336.499)"/>
    <path id="Path_53" data-name="Path 53" class="cls-1" d="M2581.327,224.008a1.945,1.945,0,0,1-.583,1.507c-.869.873-1.728,1.755-2.606,2.618a1.91,1.91,0,0,1-2.847-.023q-3.79-3.773-7.567-7.559a1.9,1.9,0,0,1-.035-2.884q1.3-1.351,2.654-2.649a1.859,1.859,0,0,1,2.681.01q3.9,3.858,7.769,7.755A1.708,1.708,0,0,1,2581.327,224.008Zm-4.614,2.705a1.565,1.565,0,1,0-.045-3.13,1.643,1.643,0,0,0-1.528,1.592A1.589,1.589,0,0,0,2576.714,226.714Z" transform="translate(-342.495)"/>
    <path id="Path_54" data-name="Path 54" class="cls-1" d="M2371.032,484.91l.01-.02,0,.014Z" transform="translate(-168.131 -240.567)"/>
  </g>
</svg>
