<svg xmlns="http://www.w3.org/2000/svg" width="102.54" height="65.428" viewBox="0 0 102.54 65.428">
  <defs>
    <style>
      .cls-1 {
        fill: #2264d5;
      }
    </style>
  </defs>
  <g id="Group_19" data-name="Group 19" transform="translate(-2019.981 1030.932)">
    <path id="Path_55" data-name="Path 55" class="cls-1" d="M2094.725-975.589c.051.909.2,1.543,1.118,1.748.749.167,1.467.471,2.2.709a3.132,3.132,0,0,1,2.373,3.13,8.143,8.143,0,0,1-.141,2.1,3.358,3.358,0,0,1-3.5,2.386c-1.787.026-3.574.012-5.362.011q-7.844,0-15.687,0a4.157,4.157,0,0,1-2.82-.95,2.664,2.664,0,0,1-1.05-2.052c0-.463.021-.929-.019-1.389a2.8,2.8,0,0,1,1.888-2.947,10.333,10.333,0,0,1,1.838-.739,1.709,1.709,0,0,0,1.412-1.91,4.106,4.106,0,0,0-.534-.068c-2.119,0-4.237.014-6.355-.013-.543-.007-.677.2-.672.7.021,1.854.014,3.707.007,5.561a3.56,3.56,0,0,1-3.792,3.811q-8.639-.006-17.278-.018-12.379,0-24.757.018c-2.479,0-3.614-1.124-3.615-3.593q0-14.134.005-28.267a5.093,5.093,0,0,1,.158-1.307,2.763,2.763,0,0,1,2.863-2.182c2.493-.017,4.987-.023,7.48,0,.577.006.752-.159.748-.747q-.039-5.395-.006-10.79a3.419,3.419,0,0,1,2.045-3.477,4.2,4.2,0,0,1,1.545-.275c2.073-.027,4.148,0,6.222,0,2.51,0,5.02-.018,7.531-.008.473,0,.67-.137.657-.642-.047-1.762-.077-3.526-.076-5.289,0-1.41-.016-2.825.1-4.227a5.03,5.03,0,0,1,5.229-4.6c1.984-.031,3.969-.007,5.953-.007q28.1,0,56.207,0a5.875,5.875,0,0,1,4.627,1.712,4.649,4.649,0,0,1,1.211,3.137c.029.948.009,1.9.009,2.846,0,14.035-.037,28.07.026,42.1a5.308,5.308,0,0,1-5.577,5.578c-6.309-.076-12.62-.035-18.93-.042C2096.938-975.59,2095.862-975.589,2094.725-975.589Zm-29.483-14.932c.266-.019.436-.041.606-.041q5.692,0,11.385,0,20.156-.006,40.313.006c.719,0,.816-.247.816-.871q-.025-16.912-.012-33.824c0-1.276-.175-1.451-1.444-1.451h-61.761c-.287,0-.574,0-.86.015-.678.035-.932.319-.931,1q.011,4.334.017,8.669c0,.855,0,.856.874.856,3.905,0,7.811-.011,11.717.008a3.412,3.412,0,0,1,3.449,3.233c.058.9.045.912-.885.912l-20.984.009q-5.724,0-11.449,0c-.4,0-.728-.028-.724.558q.031,5,0,9.995c0,.49.207.6.638.587.816-.02,1.633-.021,2.449,0a2.821,2.821,0,0,1,2.889,2.327,4.452,4.452,0,0,1,.1,1.048q.009,13.537,0,27.073c0,.442.018.768.609.763q5.587-.046,11.175-.051c3.707,0,7.414.014,11.121.018.279,0,.559-.035.887-.057Zm28.643,4.114q-11.812,0-23.624-.014c-.679,0-.867.2-.85.863.044,1.675.039,3.353,0,5.029-.014.607.165.793.78.79,4.059-.024,8.117-.005,12.176-.011,6.815-.01,13.63-.038,20.445-.04,4.742,0,9.484.029,14.226.041,1.086,0,1.308-.229,1.309-1.33q0-2.217,0-4.434c0-.892,0-.892-.906-.892Zm-69.669,16.677c.306.018.543.045.78.045,3.815,0,7.63-.013,11.444.016.66,0,.806-.228.8-.843q-.025-12.635-.012-25.27c0-.87,0-.872-.881-.873-3.815-.006-7.629,0-11.444-.027-.546,0-.72.178-.719.718q.027,12.667.027,25.335C2024.216-970.348,2024.216-970.066,2024.216-969.73Zm53.162-.1.044.143h17.3a11.444,11.444,0,0,0-2-.783,2.064,2.064,0,0,1-1.516-1.587c-.238-.985-.487-1.969-.7-2.96-.09-.426-.292-.56-.723-.557-2.6.018-5.207.025-7.809,0-.526-.006-.685.221-.776.664-.168.82-.421,1.626-.545,2.451a2.528,2.528,0,0,1-1.867,2.093C2078.311-970.2,2077.846-970.014,2077.377-969.833Z" transform="translate(0 0)"/>
    <path id="Path_56" data-name="Path 56" class="cls-1" d="M2312.545-866.422c-1.133,1.161-2.259,2.328-3.4,3.482q-2.325,2.35-4.67,4.681a1.905,1.905,0,0,1-2.394.515,2.036,2.036,0,0,1-1.26-2.184,3.208,3.208,0,0,1,.841-1.434c2.611-2.656,5.258-5.276,7.891-7.909a1.408,1.408,0,0,0,.137-.233c-.828.173-1.591.352-2.361.489a2.162,2.162,0,0,1-1.987-.45,1.95,1.95,0,0,1-.623-1.982,1.938,1.938,0,0,1,1.516-1.571q4.192-.937,8.378-1.907a4.8,4.8,0,0,0,1.1-.412,2.017,2.017,0,0,1,2.329.337,2.166,2.166,0,0,1,.66,2.271c-.392,1.206-.759,2.424-1.06,3.656-.5,2.033-.918,4.084-1.4,6.121a2.11,2.11,0,0,1-2.475,1.474,2.111,2.111,0,0,1-1.551-2.546c.151-.767.318-1.53.478-2.3Z" transform="translate(-243.617 -134.794)"/>
    <path id="Path_57" data-name="Path 57" class="cls-1" d="M2225.411-617.181c.462,0,.925,0,1.387,0a2.118,2.118,0,0,1,2.152,1.9,2.017,2.017,0,0,1-2,2.243c-1.144.035-2.292.022-3.434-.035a1.991,1.991,0,0,1-1.86-2.1,2.055,2.055,0,0,1,1.9-2.014c.615-.037,1.234-.007,1.85-.007Z" transform="translate(-174.974 -358.943)"/>
    <path id="Path_58" data-name="Path 58" class="cls-1" d="M2496.656-992.07c.462,0,.925-.017,1.386,0a2.08,2.08,0,0,1,2.045,2.083,2.028,2.028,0,0,1-1.976,2.067c-1.032.047-2.069.034-3.1-.015a2.047,2.047,0,0,1-1.926-2.052,2.106,2.106,0,0,1,1.922-2.073c.547-.041,1.1-.007,1.649-.007Z" transform="translate(-410.458 -33.709)"/>
    <path id="Path_59" data-name="Path 59" class="cls-1" d="M2232.673-874.946a2.073,2.073,0,0,1,2.065-2.059,2.086,2.086,0,0,1,2.1,2.094,2.081,2.081,0,0,1-2.1,2.095A2.1,2.1,0,0,1,2232.673-874.946Z" transform="translate(-184.528 -133.545)"/>
    <path id="Path_60" data-name="Path 60" class="cls-1" d="M2076.37-607.145c-.529,0-1.059.015-1.588,0a2.057,2.057,0,0,1-2.046-2.076,2.065,2.065,0,0,1,2.038-2.088c1.035-.025,2.073-.03,3.108-.005a2.112,2.112,0,0,1,2.132,2.085,2.1,2.1,0,0,1-2.189,2.089c-.485.008-.971,0-1.455,0Z" transform="translate(-45.769 -364.038)"/>
  </g>
</svg>
