<svg xmlns="http://www.w3.org/2000/svg" width="130" height="42.355" viewBox="0 0 130 42.355"><g transform="translate(-62 -20.503)"><g transform="translate(62 20.503)"><path d="M6.645,10.314A11.293,11.293,0,0,1,2.2,2.923,11.475,11.475,0,0,1,2.289.19C2.622,1.1,2.9,2.025,3.3,2.9A8.954,8.954,0,0,0,9.075,8.065a14.016,14.016,0,0,0,4.185.423,13.249,13.249,0,0,1,9.5,3.66,3.227,3.227,0,0,1,.807,1.16,2.188,2.188,0,0,1-.9,2.581,2.218,2.218,0,0,1-2.8-.232,9.468,9.468,0,0,0-3.63-2.148A8.9,8.9,0,0,0,4.82,19.953,8.752,8.752,0,0,0,12.171,30.49a8.248,8.248,0,0,0,8.067-3.126l3.378-4.245c.141-.181.313-.343.544-.6a2.682,2.682,0,0,1,.161.585c0,2.017,0,4.033,0,5.989a1.472,1.472,0,0,1-.272.8,12.483,12.483,0,0,1-8.45,5.042,12.987,12.987,0,0,1-11.566-3.61,13.169,13.169,0,0,1,1.886-20.5Z" transform="translate(0.013 0.002)" fill="#fff"/><path d="M30.66,21.024V14.772a2.208,2.208,0,0,1,.434-1.22,12.765,12.765,0,0,1,10.7-5.042,12.292,12.292,0,0,0,5.344-.928,9.63,9.63,0,0,0,4.79-5.566C52.168,1.4,52.349.776,52.6,0c.474,2.319,0,6.685-4.285,10.315l.7.5a13.219,13.219,0,0,1-2.269,23.252c-5.193,2.128-10,1.22-14.3-2.37a3.65,3.65,0,0,1-1.008-1.23,2.168,2.168,0,0,1,.746-2.632,2.269,2.269,0,0,1,2.874.111c.474.383.918.817,1.422,1.149a8.769,8.769,0,1,0-.212-14.379,7.623,7.623,0,0,0-1.391,1.412c-1.24,1.492-2.43,3.025-3.64,4.548l-.373.474Z" transform="translate(-1.703)" fill="#fff"/><path d="M19.521,21.581a6.05,6.05,0,1,1-1.739-4.336A6.05,6.05,0,0,1,19.521,21.581Zm-9.388-1.754a1.684,1.684,0,0,0,1.633,1.623,1.654,1.654,0,1,0,0-3.307,1.674,1.674,0,0,0-1.633,1.684Z" transform="translate(0.074 0.129)" fill="#fff"/><path d="M35.33,21.561a6.121,6.121,0,1,1,6.131,6.05A6.121,6.121,0,0,1,35.33,21.561Zm5.979-1.785a1.623,1.623,0,1,0-1.644,1.674,1.644,1.644,0,0,0,1.644-1.674Z" transform="translate(-1.746 0.128)" fill="#fff"/><path d="M25.1,20.39V11.93a2.319,2.319,0,0,1,.948-2.017,2.289,2.289,0,0,1,3.64,1.573,4.85,4.85,0,0,1,0,.635V28.729a2.339,2.339,0,0,1-1.412,2.38,2.259,2.259,0,0,1-3.2-2.1c0-1.785,0-3.569,0-5.344Q25.09,22.024,25.1,20.39Z" transform="translate(-1.152 0.079)" fill="#fff"/><path d="M27.429,33.2c.837,0,1.674-.05,2.5,0a2.107,2.107,0,0,1,2.017,3.025,28.7,28.7,0,0,1-2.773,4.84,2.017,2.017,0,0,1-3.5,0,28.485,28.485,0,0,1-2.753-4.739c-.706-1.543.282-2.924,2.017-3.025A13.659,13.659,0,0,1,27.429,33.2Z" transform="translate(-1.088 0.276)" fill="#fff"/><path d="M62.51,3.182A2.329,2.329,0,0,1,65.122.58h2.017a2.329,2.329,0,0,1,2.6,2.6v9.267a2.329,2.329,0,0,1-2.6,2.6H65.122a2.329,2.329,0,0,1-2.6-2.6Zm4.174,9.539a.645.645,0,0,0,.726-.726V3.635a.645.645,0,0,0-.726-.726H65.676a.645.645,0,0,0-.726.726v8.359a.645.645,0,0,0,.726.726Z" transform="translate(-2.958 0.005)" fill="#ffde03"/><path d="M73.94,12.645h3.58a.262.262,0,0,1,.292.292v1.8a.252.252,0,0,1-.292.292H71.772a.262.262,0,0,1-.292-.292V2.642a.262.262,0,0,1,.292-.292h1.886a.262.262,0,0,1,.292.292Z" transform="translate(-3.357 0.02)" fill="#ffde03"/><path d="M90.419,2.37c.252,0,.383.141.343.383L89.027,14.712a.353.353,0,0,1-.393.323H86.678a.373.373,0,0,1-.4-.323L84.611,7.291l-1.684,7.421a.373.373,0,0,1-.393.323H80.517a.353.353,0,0,1-.393-.343L78.48,2.753c0-.232.091-.383.343-.383h1.7a.353.353,0,0,1,.383.343l.887,7.562h.091l1.775-7.6a.373.373,0,0,1,.383-.3h1.109a.373.373,0,0,1,.393.313l1.775,7.6h.091l.928-7.562c0-.232.141-.343.383-.343Z" transform="translate(-3.894 0.02)" fill="#ffde03"/><path d="M100.279.58c.272,0,.383.141.323.393L97.577,14.727a.373.373,0,0,1-.4.323H95.339a.373.373,0,0,1-.393-.323L91.9,1c-.05-.252.05-.393.323-.393h1.724a.373.373,0,0,1,.393.323l1.9,9.7L98.162.9a.373.373,0,0,1,.4-.323Z" transform="translate(-4.414 0.005)" fill="#ffde03"/><path d="M102.272,15.035a.262.262,0,0,1-.292-.292V2.642a.262.262,0,0,1,.292-.292h1.886a.262.262,0,0,1,.292.292v12.1a.262.262,0,0,1-.292.292Z" transform="translate(-4.632 0.02)" fill="#ffde03"/><path d="M110.848,2.37a2.329,2.329,0,0,1,2.6,2.652V6.172a.262.262,0,0,1-.292.292h-1.825a.262.262,0,0,1-.292-.292V5.415a.645.645,0,0,0-.726-.726h-1.008a.655.655,0,0,0-.726.726V6.948l4.376,1.412a.645.645,0,0,1,.474.665v3.4a2.329,2.329,0,0,1-2.6,2.6h-2.017a2.339,2.339,0,0,1-2.6-2.6v-1.17a.262.262,0,0,1,.292-.292h1.825a.252.252,0,0,1,.292.292v.756a.645.645,0,0,0,.726.726h1.008a.645.645,0,0,0,.726-.726V10.185l-4.346-1.412a.645.645,0,0,1-.484-.665V5.022a2.339,2.339,0,0,1,2.6-2.6Z" transform="translate(-5.036 0.02)" fill="#ffde03"/><path d="M115.472,15.035a.262.262,0,0,1-.292-.292V2.642a.262.262,0,0,1,.292-.292h1.886a.262.262,0,0,1,.292.292v12.1a.262.262,0,0,1-.292.292Z" transform="translate(-6.226 0.02)" fill="#ffde03"/><path d="M119.42,5.022a2.329,2.329,0,0,1,2.6-2.652h2.017a2.329,2.329,0,0,1,2.612,2.652v7.452a2.329,2.329,0,0,1-2.612,2.561h-2.017a2.329,2.329,0,0,1-2.6-2.6Zm4.235,7.724a.645.645,0,0,0,.726-.726V5.425a.645.645,0,0,0-.726-.726H122.5a.645.645,0,0,0-.726.726V11.98a.645.645,0,0,0,.726.726Z" transform="translate(-6.191 0.02)" fill="#ffde03"/><path d="M135.821,2.37a.262.262,0,0,1,.292.292v12.1a.262.262,0,0,1-.292.292H134.39a.323.323,0,0,1-.323-.232l-3.4-6.907v6.857a.262.262,0,0,1-.292.292h-1.7a.262.262,0,0,1-.292-.292V2.673a.262.262,0,0,1,.292-.292H130.1a.323.323,0,0,1,.323.232l3.4,6.907V2.662a.262.262,0,0,1,.292-.292Z" transform="translate(-6.116 0.02)" fill="#ffde03"/><path d="M64.211,21.027a2.914,2.914,0,0,1,3.247-3.247h3.025a2.914,2.914,0,0,1,3.206,3.247v2.349a.333.333,0,0,1-.363.363H71.057a.323.323,0,0,1-.363-.363V21.662a.807.807,0,0,0-.907-.907h-1.6a.8.8,0,0,0-.908.907V32a.8.8,0,0,0,.908.907h1.623A.8.8,0,0,0,70.714,32V28.973h-1.18a.323.323,0,0,1-.363-.363V26.361A.313.313,0,0,1,69.534,26h3.791a.323.323,0,0,1,.363.363v6.272a2.924,2.924,0,0,1-3.247,3.247H67.417a2.914,2.914,0,0,1-3.247-3.247Z" transform="translate(-3.101 0.148)" fill="#fff"/><path d="M84.875,27.855a3.025,3.025,0,0,1-1.26,2.753l1.17,4.85c.071.272-.071.4-.313.4H82.263a.353.353,0,0,1-.383-.313l-1.089-4.457H78.774v4.4a.333.333,0,0,1-.363.363h-2.2a.333.333,0,0,1-.363-.363V20.363A.333.333,0,0,1,76.213,20h5.415a2.914,2.914,0,0,1,3.247,3.247Zm-3.832.333a.807.807,0,0,0,.907-.907v-3.4a.807.807,0,0,0-.907-.857H78.784v5.213Z" transform="translate(-3.652 0.166)" fill="#fff"/><path d="M95.074,35.861a.343.343,0,0,1-.363-.313L93.985,32.7H89.74l-.716,2.843a.343.343,0,0,1-.363.313h-2.2c-.252,0-.363-.131-.292-.383l3.751-15.125a.353.353,0,0,1,.383-.313H93.44a.353.353,0,0,1,.383.313l3.751,15.125c.071.252,0,.383-.313.383ZM91.857,23.942l-1.422,6.141h2.843Z" transform="translate(-4.243 0.167)" fill="#fff"/><path d="M99.29,20.423a.333.333,0,0,1,.363-.363h5.395a2.914,2.914,0,0,1,3.247,3.247v4.427a2.924,2.924,0,0,1-3.247,3.257H102.2v4.537a.323.323,0,0,1-.363.363H99.633a.333.333,0,0,1-.363-.363Zm5.193,7.643a.807.807,0,0,0,.907-.907V23.882a.8.8,0,0,0-.907-.907h-2.259v5.092Z" transform="translate(-4.783 0.167)" fill="#fff"/><path d="M116.439,20.423a.333.333,0,0,1,.363-.363h2.329c.272,0,.383.131.383.363V35.548c0,.222-.111.363-.383.363H116.8a.333.333,0,0,1-.363-.363V29.5h-2.894v6.05a.333.333,0,0,1-.363.363h-2.329c-.272,0-.383-.131-.383-.363V20.423c0-.222.111-.363.383-.363h2.329a.333.333,0,0,1,.363.363v6.05h2.894Z" transform="translate(-6.265 0.167)" fill="#fff"/><path d="M122,35.861a.323.323,0,0,1-.363-.363V20.373A.323.323,0,0,1,122,20.01h2.349a.333.333,0,0,1,.363.363V35.5a.333.333,0,0,1-.363.363Z" transform="translate(-6.172 0.167)" fill="#fff"/><path d="M136.015,25.757a.333.333,0,0,1-.363.363h-2.117a.323.323,0,0,1-.363-.363V23.9a.807.807,0,0,0-.907-.907h-1.442a.8.8,0,0,0-.907.907v8.2a.8.8,0,0,0,.908.908h1.442a.8.8,0,0,0,.907-.908V30.184a.323.323,0,0,1,.363-.363h2.117a.333.333,0,0,1,.363.363v2.44a2.924,2.924,0,0,1-3.247,3.247h-2.531A2.924,2.924,0,0,1,127,32.614v-9.3a2.924,2.924,0,0,1,3.277-3.247h2.531a2.924,2.924,0,0,1,3.247,3.247Z" transform="translate(-6.127 0.167)" fill="#fff"/></g></g></svg>